<svg width="227" height="48" viewBox="0 0 227 48" fill="none" xmlns="http://www.w3.org/2000/svg">
<path d="M78.0654 0H103.091L78.0654 48H53.04L78.0654 0Z" fill="#CBFE01"/>
<path d="M131.518 12.76H136.238L131.238 38H125.198L120.198 12.76H124.958L128.198 33.16L131.518 12.76ZM138.401 12.76H143.041V38H138.401V12.76ZM149.241 23.28V26.84H140.721V23.28H149.241ZM150.401 12.76V16.28H140.481V12.76H150.401ZM150.721 34.48V38H140.481V34.48H150.721ZM163.122 12.76H167.322V38H163.002L157.602 21.28V38H153.362V12.76H157.802L163.122 29.24V12.76ZM180.054 28.28V17.36C180.054 16.9333 179.974 16.6533 179.814 16.52C179.68 16.36 179.387 16.28 178.934 16.28H177.574V12.76H180.294C181.84 12.76 182.947 13.1067 183.614 13.8C184.307 14.4933 184.654 15.4667 184.654 16.72V28.28H180.054ZM180.054 33.4V26.92H184.654V34.04C184.654 35.2933 184.307 36.2667 183.614 36.96C182.947 37.6533 181.84 38 180.294 38H177.414V34.48H178.934C179.387 34.48 179.68 34.4 179.814 34.24C179.974 34.08 180.054 33.8 180.054 33.4ZM175.654 17.36V28.28H171.054V16.72C171.054 15.4667 171.4 14.4933 172.094 13.8C172.787 13.1067 173.894 12.76 175.414 12.76H178.134V16.28H176.814C176.36 16.28 176.054 16.36 175.894 16.52C175.734 16.6533 175.654 16.9333 175.654 17.36ZM175.654 26.72V33.4C175.654 33.8 175.734 34.08 175.894 34.24C176.054 34.4 176.36 34.48 176.814 34.48H178.094V38H175.414C173.894 38 172.787 37.6533 172.094 36.96C171.4 36.2667 171.054 35.2933 171.054 34.04V26.72H175.654ZM199.522 32.52H195.802L192.442 20.32V38H188.362V12.76H193.402L197.642 27.76L201.882 12.76H206.922V38H202.882V20.28L199.522 32.52ZM222.224 29.28V32.76H212.704V29.28H222.224ZM225.784 38H221.144L217.344 17.2L213.784 38H209.184L214.264 12.76H220.464L225.784 38Z" fill="white"/>
<path d="M44.6984 0H69.7238L44.6984 48H19.6731L44.6984 0Z" fill="white"/>
<path d="M25.0253 14.6675H-4.94048e-05L19.6727 47.9998H44.698L25.0253 14.6675Z" fill="white"/>
</svg>
