<svg width="24" height="25" viewBox="0 0 24 25" fill="none" xmlns="http://www.w3.org/2000/svg">
<path fill-rule="evenodd" clip-rule="evenodd" d="M12 2.33325C6.48 2.33325 2 6.81325 2 12.3333C2 17.8533 6.48 22.3333 12 22.3333C17.52 22.3333 22 17.8533 22 12.3333C22 6.81325 17.52 2.33325 12 2.33325ZM16.9 15.8233L15.5 17.2233C15.3 17.4233 14.99 17.4233 14.79 17.2233L11.38 13.8133C10.16 14.2433 8.74 13.9833 7.76 13.0033C6.65 11.8933 6.46 10.2133 7.17 8.90325L9.52 11.2533L10.93 9.84325L8.58 7.50325C9.9 6.79325 11.57 6.98325 12.68 8.09325C13.66 9.07325 13.92 10.4933 13.49 11.7133L16.9 15.1233C17.09 15.3133 17.09 15.6333 16.9 15.8233Z" fill="#CBFE01"/>
</svg>
