<svg width="24" height="25" viewBox="0 0 24 25" fill="none" xmlns="http://www.w3.org/2000/svg">
<path d="M16.2385 11.8427L17.8085 10.2727L14.0585 6.52269L12.4885 8.09269L8.34854 3.96269C7.56854 3.18269 6.29854 3.18269 5.51854 3.96269L3.61854 5.86269C2.83854 6.64269 2.83854 7.91269 3.61854 8.69269L7.74854 12.8227L2.99854 17.5827V21.3327H6.74854L11.5085 16.5727L15.6385 20.7027C16.5885 21.6527 17.8685 21.3027 18.4685 20.7027L20.3685 18.8027C21.1485 18.0227 21.1485 16.7527 20.3685 15.9727L16.2385 11.8427ZM9.17854 11.4027L5.03854 7.27269L6.92853 5.37269L8.19853 6.64269L7.01854 7.83269L8.42854 9.24269L9.61854 8.05269L11.0685 9.50269L9.17854 11.4027ZM17.0585 19.2927L12.9285 15.1627L14.8285 13.2627L16.2785 14.7127L15.0885 15.9027L16.4985 17.3127L17.6885 16.1227L18.9585 17.3927L17.0585 19.2927Z" fill="#CBFE01"/>
<path d="M20.7085 7.37269C21.0985 6.98269 21.0985 6.35269 20.7085 5.96269L18.3685 3.62269C17.8985 3.15269 17.2485 3.33269 16.9585 3.62269L15.1285 5.45269L18.8785 9.20269L20.7085 7.37269Z" fill="#CBFE01"/>
</svg>
